<svg xmlns="http://www.w3.org/2000/svg" width="256" height="248" viewBox="0 0 256 248" preserveAspectRatio="xMidYMid"><title>Kubernetes</title><path d="M2.054,218.187 C3.374,220.534 5.281,222.295 7.629,223.615 L120.591,288.752 C125.286,291.539 131.007,291.539 135.555,288.752 L248.518,223.615 C253.213,220.974 256,215.986 256,210.558 L256,80.284 C256,74.856 253.213,69.868 248.518,67.228 L135.555,2.091 C130.861,-0.697 125.139,-0.697 120.591,2.091 L7.629,67.228 C2.787,69.868 0,74.856 0,80.284 L0,210.705 C0,213.346 0.587,215.84 2.054,218.187" fill="#326CE5" transform="translate(0, -22) scale(1, 1)"/><path d="M91.837,173.154 C91.837,181.223 85.382,187.678 77.313,187.678 C69.245,187.678 62.79,181.223 62.79,173.154 L62.79,73.542 C62.79,65.766 69.685,59.458 79.221,59.458 C86.116,59.458 94.185,62.245 99.026,68.26 L103.427,73.542 L164.163,146.16 L164.163,73.835 C164.163,65.766 170.618,59.311 178.687,59.311 C186.755,59.311 193.21,65.766 193.21,73.835 L193.21,173.448 C193.21,181.223 186.315,187.531 176.779,187.531 C169.884,187.531 161.815,184.744 156.974,178.729 L91.837,100.975 L91.837,173.154 Z" fill="#FFFFFF"/></svg>